<svg xmlns="http://www.w3.org/2000/svg" viewBox="81.072 59.753 23.016 22.135" width="23.016" height="22.135">
  <path d="M 104.088 70.898 C 104.088 76.968 99.123 81.888 92.997 81.888 C 86.872 81.888 81.906 76.968 81.906 70.898 C 81.906 70.745 81.909 70.593 81.915 70.442 C 81.792 70.335 81.683 70.217 81.593 70.093 C 81.232 69.6 80.985 68.902 81.101 68.075 C 81.265 66.909 82.579 64.764 83.263 63.655 C 83.775 62.827 84.284 62.197 84.738 61.781 C 85.069 61.478 85.316 61.318 85.671 61.205 C 86.048 61.084 86.571 61.254 86.949 61.109 C 87.324 60.964 87.525 60.503 87.932 60.34 C 88.389 60.158 89.329 60.118 89.602 60.148 C 89.724 60.162 89.674 60.241 89.799 60.244 C 90.103 60.253 91.15 59.803 91.765 59.764 C 92.27 59.731 92.797 59.774 93.213 59.911 C 99.239 60.024 104.088 64.9 104.088 70.898 Z" style="stroke: rgb(0, 0, 0); fill: rgb(226, 255, 130); stroke-linejoin: round; stroke-width: 3px;"></path>
</svg>